<svg width="24" height="24" viewBox="0 0 24 24" fill="none" xmlns="http://www.w3.org/2000/svg">
<g id="Plus">
<path id="Union" fill-rule="evenodd" clip-rule="evenodd" d="M12.7 6C12.7 5.6134 12.3866 5.3 12 5.3C11.6134 5.3 11.3 5.6134 11.3 6V11.3H6.00005C5.61345 11.3 5.30005 11.6134 5.30005 12C5.30005 12.3866 5.61345 12.7 6.00005 12.7H11.3V18C11.3 18.3866 11.6134 18.7 12 18.7C12.3866 18.7 12.7 18.3866 12.7 18V12.7H18C18.3866 12.7 18.7 12.3866 18.7 12C18.7 11.6134 18.3866 11.3 18 11.3H12.7V6Z" fill="#33383C"/>
</g>
</svg>
