<svg width="20" height="20" viewBox="0 0 20 20" fill="none" xmlns="http://www.w3.org/2000/svg">
<g clip-path="url(#clip0_427_11765)">
<path d="M16.6298 17.6632L16.0298 6.66318C16.0199 6.53668 15.9632 6.41842 15.8707 6.33152C15.7782 6.2446 15.6567 6.19528 15.5298 6.19318H13.5298V5.76318C13.5298 4.83492 13.1611 3.94468 12.5047 3.2883C11.8483 2.63194 10.9581 2.26318 10.0298 2.26318C9.10158 2.26318 8.21134 2.63194 7.55496 3.2883C6.89858 3.94468 6.52984 4.83492 6.52984 5.76318V6.19318H4.52984C4.40296 6.19528 4.28142 6.2446 4.18896 6.33152C4.0965 6.41842 4.03978 6.53668 4.02984 6.66318L3.40984 17.6632C3.4043 17.7308 3.41286 17.7989 3.435 17.863C3.45712 17.9271 3.49234 17.986 3.5384 18.0358C3.58448 18.0856 3.64038 18.1254 3.7026 18.1525C3.76482 18.1795 3.83198 18.1934 3.89984 18.1932H16.1998C16.3264 18.1781 16.442 18.1143 16.5223 18.0154C16.6026 17.9164 16.6411 17.7901 16.6298 17.6632ZM4.31984 17.2432L4.89984 7.19318H15.0998L15.6598 17.2932L4.31984 17.2432ZM7.49984 5.76318C7.49984 5.10014 7.76322 4.46426 8.23206 3.99542C8.70092 3.52658 9.3368 3.26318 9.99984 3.26318C10.6629 3.26318 11.2988 3.52658 11.7676 3.99542C12.2364 4.46426 12.4998 5.10014 12.4998 5.76318V6.19318H7.49984V5.76318Z" fill="black"/>
</g>
<defs>
<clipPath id="clip0_427_11765">
<rect width="20" height="20" fill="white"/>
</clipPath>
</defs>
</svg>
